<?xml version="1.0" encoding="UTF-8"?> 
<svg xmlns="http://www.w3.org/2000/svg" width="960" height="200" viewBox="0 0 960 200"> 
  <defs> 
    <style> 
      .bar{fill:#D6A36E;stroke:#8B5E3C;stroke-width:4;rx:7;ry:7} 
      .chip{fill:#4B2E16} 
    </style> 
  </defs> 

  <g transform="translate(20,55)"> 
    <rect x="0" y="114" width="120" height="15" rx="6" fill="#D0D5DA"/> 
    <rect x="0" y="84" width="15" height="40" rx="6" fill="#D0D5DA"/> 
    <rect x="105" y="84" width="15" height="40" rx="6" fill="#D0D5DA"/>

    <g>
      <rect class="bar" x="20" y="96" width="78" height="14"/>
      <circle class="chip" cx="42" cy="103" r="3.2"/><circle class="chip" cx="77" cy="103" r="3"/>
    </g>

    <g transform="translate(5, -36) rotate(15 20 97)">
      <rect class="bar" x="20" y="96" width="78" height="14"/>
      <circle class="chip" cx="42" cy="103" r="3.2"/><circle class="chip" cx="77" cy="103" r="3"/>
    </g>

    <g transform="translate(15, -70) rotate(30 20 97)">
      <rect class="bar" x="20" y="96" width="78" height="14"/>
      <circle class="chip" cx="42" cy="103" r="3.2"/><circle class="chip" cx="77" cy="103" r="3"/>
    </g>

    <g transform="translate(35, -100) rotate(45 20 97)">
      <rect class="bar" x="20" y="96" width="78" height="14"/>
      <circle class="chip" cx="42" cy="103" r="3.2"/><circle class="chip" cx="77" cy="103" r="3"/>
    </g>

    <g transform="translate(60, -125) rotate(60 20 97)">
      <rect class="bar" x="20" y="96" width="78" height="14"/>
      <circle class="chip" cx="42" cy="103" r="3.2"/><circle class="chip" cx="77" cy="103" r="3"/>
    </g>

    <g transform="translate(120, -130) rotate(90 20 90)">
      <rect class="bar" x="20" y="96" width="78" height="14"/>
      <circle class="chip" cx="42" cy="103" r="3.2"/><circle class="chip" cx="77" cy="103" r="3"/>
    </g>
  </g> 

  <text x="170" y="100" fill="#2D2D2D" font-family="Inter, Segoe UI, Roboto, Helvetica, Arial, sans-serif" font-weight="700" font-size="110" dominant-baseline="central"> snackoverflow </text> 
</svg>
